<svg xmlns="http://www.w3.org/2000/svg" viewBox="0 0 69.11 87"><defs><style>.cls-1{opacity:0.75;}.cls-2{fill:#72777d;}</style></defs><title>icn-golang-grey</title><g id="Layer_2" data-name="Layer 2"><g id="Layer_1-2" data-name="Layer 1"><g class="cls-1"><path class="cls-2" d="M33.32,24.59A10.43,10.43,0,1,0,22.89,35,10.44,10.44,0,0,0,33.32,24.59ZM22.89,33a8.43,8.43,0,1,1,8.43-8.43A8.44,8.44,0,0,1,22.89,33Z"/><circle class="cls-2" cx="22.89" cy="26.28" r="3.63"/><path class="cls-2" d="M56.64,24.59A10.43,10.43,0,1,0,46.21,35,10.44,10.44,0,0,0,56.64,24.59Zm-18.85,0A8.43,8.43,0,1,1,46.21,33,8.44,8.44,0,0,1,37.78,24.59Z"/><circle class="cls-2" cx="46.21" cy="26.28" r="3.63"/><path class="cls-2" d="M35.63,45h.87a1.4,1.4,0,0,0,1.39-1.39V42.09c1.7.15,3.16.18,4.13-.7a3.14,3.14,0,0,0,.91-2.46c0-2.67-3.73-5.9-8.37-5.9s-8.37,3.23-8.37,5.9a3.26,3.26,0,0,0,.94,2.58,3.46,3.46,0,0,0,2.42.74c.25,0,.51,0,.78,0v1.43A1.4,1.4,0,0,0,31.71,45h.87A1.4,1.4,0,0,0,34,43.63V41.9h.26v1.74A1.4,1.4,0,0,0,35.63,45Zm-7.17-5a1.64,1.64,0,0,1-.27-1.09c0-.87,1.13-2.24,2.93-3.11a2.52,2.52,0,0,0-.54,1.4c0,1.36,1.78,1.74,4,1.74s4-.38,4-1.74a2.52,2.52,0,0,0-.54-1.4c1.8.87,2.93,2.24,2.93,3.11a1.47,1.47,0,0,1-.25,1c-.42.38-1.81.26-3.16.13-.89-.08-1.89-.17-3-.17a28,28,0,0,0-3.1.22C30.18,40.23,28.85,40.37,28.45,40Z"/><path class="cls-2" d="M3.72,19.54l0,0c1.86,1.27,3.27,2.38,3,4.13a28,28,0,0,0-.35,4.52l.92,11.51a47.88,47.88,0,0,1,0,7.54l-.2,2.5a.71.71,0,0,1-.69.68,4.36,4.36,0,0,0-1.59.23,4.22,4.22,0,0,0-2.73,3,4.44,4.44,0,0,0,.94,4A3.84,3.84,0,0,0,6.35,59h.08a1,1,0,0,0,.81.88l.19,0a1,1,0,0,0,1-.81A1.79,1.79,0,0,0,8,57.55,2.08,2.08,0,0,0,6.16,57a1.86,1.86,0,0,1-1.58-.68,2.44,2.44,0,0,1-.51-2.17,2.23,2.23,0,0,1,1.43-1.55,2.32,2.32,0,0,1,.86-.13,2.73,2.73,0,0,0,2.78-2.52l.2-2.5a50,50,0,0,0,0-7.86L8.42,28.14A26.19,26.19,0,0,1,8.75,24c.4-2.82-1.64-4.53-3.35-5.73l0-.13-.74-.35a3.3,3.3,0,0,1-1.86-3.62A3.35,3.35,0,0,1,5,11.69a3.19,3.19,0,0,1,2.59.15l.35.11c.95.26,4.75,1.12,7.08-1.08a26,26,0,0,1,39.18.07C56.38,13,60,12.25,61.12,12h0l.43-.13a3.19,3.19,0,0,1,2.59-.15,3.35,3.35,0,0,1,2.13,2.48,3.3,3.3,0,0,1-1.86,3.63l-.74.36,0,.12C62,19.44,60,21.16,60.36,24a26.31,26.31,0,0,1,.33,4l-.92,11.52a50,50,0,0,0,0,7.86l.2,2.5a2.78,2.78,0,0,0,2.86,2.52A2.27,2.27,0,0,1,65,55.31c-.17.69-.7,1.46-1.31,1.52A3.73,3.73,0,0,0,61,57.93,1.47,1.47,0,0,0,60.7,59a1,1,0,0,0,2,.08,3.43,3.43,0,0,1,1.26-.29,3.81,3.81,0,0,0,3.06-3,4.27,4.27,0,0,0-4.15-5.36h0a.8.8,0,0,1-.85-.68l-.2-2.5a47.88,47.88,0,0,1,0-7.54l.92-11.59a28,28,0,0,0-.35-4.42c-.25-1.77,1.14-2.88,3.05-4.18a5.3,5.3,0,0,0-.57-9.73,5.17,5.17,0,0,0-4,.17h0c-1.22.37-3.9.75-5.18-.44a28,28,0,0,0-42.05-.07c-1.34,1.26-4,.89-5.22.52h0a5.18,5.18,0,0,0-4-.17,5.3,5.3,0,0,0-.57,9.73Z"/><path class="cls-2" d="M55,79.39c-.18-.11-1.24-.88-2.16-1.57a1,1,0,1,0-1.19,1.61c.46.35,2,1.49,2.32,1.68,1.14.69,1.44,1.3,1.39,1.48s-.4.45-1.23.6a9.11,9.11,0,0,1-3.63-.2,10.56,10.56,0,0,1-2.08-.73,2.67,2.67,0,0,0-2.35.05,25.94,25.94,0,0,1-23,0,2.67,2.67,0,0,0-2.35-.05,10.55,10.55,0,0,1-2.08.73,9.11,9.11,0,0,1-3.62.2c-.84-.16-1.2-.45-1.24-.61s.25-.79,1.39-1.48a2.65,2.65,0,0,0,1.26-1.93,2.78,2.78,0,0,0-.75-2.3l-.28-.29a8.34,8.34,0,0,1-.58-.65,1,1,0,1,0-1.54,1.27A9.4,9.4,0,0,0,14,78l.27.28a.79.79,0,0,1,.22.65.64.64,0,0,1-.31.48c-1.77,1.06-2.61,2.4-2.31,3.66.15.62.71,1.71,2.81,2.1a11,11,0,0,0,4.46-.22,12.59,12.59,0,0,0,2.48-.87.69.69,0,0,1,.6,0,27.95,27.95,0,0,0,24.77,0,.69.69,0,0,1,.6,0,12.61,12.61,0,0,0,2.48.87,11,11,0,0,0,4.46.22c2.1-.4,2.66-1.49,2.81-2.1C57.59,81.79,56.75,80.45,55,79.39Z"/><path class="cls-2" d="M5.63,69c0,1.07.47,1.85,1.42,1.85s2-1.14,2.36-2.9l.54-2.81A3.07,3.07,0,0,0,8.83,65C7,65,5.63,67.07,5.63,69Z"/><path class="cls-2" d="M20.26,65c-1.78,0-2.66,2.6-2.66,4.23,0,1.22.6,2,1.7,2,1.65,0,2.62-2.49,2.62-4.28C21.92,66,21.49,65,20.26,65Z"/><path class="cls-2" d="M35.22,69.37c0,1,.41,1.74,1.27,1.74s2.06-1.05,2.56-3.63L39.52,65a4.58,4.58,0,0,0-.84-.09C36.68,65,35.22,67.41,35.22,69.37Z"/><path class="cls-2" d="M67.85,61.5a12.32,12.32,0,0,0-4.64-.88,8.93,8.93,0,0,0-6.5,2.57c-.15.15-.28.31-.42.46a4.41,4.41,0,0,0-4.41-3,6.25,6.25,0,0,0-2.5.51,2,2,0,0,0-1-.28H45.64a2,2,0,0,0-1.48.66,2,2,0,0,0-.56-.29,14.3,14.3,0,0,0-4.08-.61A9.5,9.5,0,0,0,33.2,62.8L34,58.49a2,2,0,0,0-2-2.38H29a2,2,0,0,0-2,1.62l-1,5.45a6.34,6.34,0,0,0-5.29-2.58,8.09,8.09,0,0,0-5.49,2.08A2,2,0,0,0,14,61.5a12.32,12.32,0,0,0-4.64-.88,8.93,8.93,0,0,0-6.5,2.57A9,9,0,0,0,.37,69.53a6.2,6.2,0,0,0,1.17,3.68,2,2,0,0,0-.72,1L.09,76.6A2,2,0,0,0,1,78.93a9.49,9.49,0,0,0,4.41.92,8.43,8.43,0,0,0,5.3-1.61,9,9,0,0,0,2.8-5.2,6.29,6.29,0,0,0,5.3,2.56,8.1,8.1,0,0,0,5.24-1.87,2,2,0,0,0,2,1.63h3.09a2,2,0,0,0,2-1.62l0-.17a4.92,4.92,0,0,0,4,2,5.73,5.73,0,0,0,2.41-.53,2,2,0,0,0,1,.29h2.84A2,2,0,0,0,42.61,75a2,2,0,0,0,1.12.35h3.09a2,2,0,0,0,1.67-.89l.12.17a2,2,0,0,0,1.54.73h3.12A2,2,0,0,0,54.38,75l-.49,1.58a2,2,0,0,0,.94,2.34,9.49,9.49,0,0,0,4.41.92,8.43,8.43,0,0,0,5.3-1.61c1.94-1.57,2.6-4.09,2.94-5.86l1.59-8.67A2,2,0,0,0,67.85,61.5ZM9.5,76.67a6.53,6.53,0,0,1-4.06,1.18A7.67,7.67,0,0,1,2,77.19l.73-2.36a6.58,6.58,0,0,0,2.75.58c1.55,0,2.69-.69,3.14-2.79l.17-.9h0a3.55,3.55,0,0,1-3,1.57c-2.08,0-3.35-1.7-3.37-3.76a6.75,6.75,0,0,1,7-6.9,10.28,10.28,0,0,1,3.89.73L11.71,72C11.35,73.94,10.74,75.66,9.5,76.67Zm9.35-3.07a4.16,4.16,0,0,1-4.45-4.36,6.31,6.31,0,0,1,6.27-6.64,4.18,4.18,0,0,1,4.45,4.34,8,8,0,0,1-.06,1L24.84,69A6.09,6.09,0,0,1,18.85,73.6Zm7.2-.24.78-4.06a9.37,9.37,0,0,0,.2-1L29,58.11h3.09L29.14,73.36Zm12.59,0c0-.62.09-1.33.13-2.08h0a4,4,0,0,1-3.54,2.32c-1.89,0-3.18-1.46-3.18-3.65a7.11,7.11,0,0,1,7.52-7.33,12.39,12.39,0,0,1,3.48.52l-1.1,5.5a25.45,25.45,0,0,0-.43,4.73Zm11.52,0,1.12-5.82a6.85,6.85,0,0,0,.11-1.16c0-.75-.26-1.27-1.05-1.27-1,0-2.19,1.27-2.62,3.59l-.88,4.66H43.73l1.33-7.09c.28-1.33.43-2.47.58-3.42h2.73l-.19,1.74h0a4.44,4.44,0,0,1,3.67-2A2.55,2.55,0,0,1,54.6,65.5a12.85,12.85,0,0,1-.17,1.76l-.09.49h0l-1.06,5.59Zm5.18-.14v0h0ZM65.52,72c-.37,1.93-1,3.65-2.21,4.66a6.53,6.53,0,0,1-4.06,1.18,7.67,7.67,0,0,1-3.44-.67l.73-2.36a6.58,6.58,0,0,0,2.75.58c1.55,0,2.69-.69,3.14-2.79l.17-.9h0a3.55,3.55,0,0,1-3,1.57c-2.08,0-3.35-1.7-3.37-3.76a7.17,7.17,0,0,1,.11-1.27v0a6.71,6.71,0,0,1,6.93-5.58,10.28,10.28,0,0,1,3.89.73Z"/><path class="cls-2" d="M59.44,69c0,1.07.47,1.85,1.42,1.85s2-1.14,2.36-2.9l.54-2.81A3.07,3.07,0,0,0,62.64,65C60.77,65,59.44,67.07,59.44,69Z"/></g></g></g></svg>